<svg version="1.1" xmlns="http://www.w3.org/2000/svg" viewBox="0 0 330 482" width="330" height="482">
  <!-- svg-source:excalidraw -->
  
  <defs>
    <style class="style-fonts">
      @font-face {
        font-family: "Virgil";
        src: url("https://excalidraw.com/Virgil.woff2");
      }
      @font-face {
        font-family: "Cascadia";
        src: url("https://excalidraw.com/Cascadia.woff2");
      }
      @font-face {
        font-family: "Assistant";
        src: url("https://excalidraw.com/Assistant-Regular.woff2");
      }
    </style>
    
  </defs>
  <g stroke-linecap="round" transform="translate(10 10) rotate(0 155 71)"><path d="M32 0 C95.46 -0.47, 156.42 1.94, 278 0 M32 0 C126.27 -0.64, 220.63 -0.47, 278 0 M278 0 C300.8 0.33, 310.57 12.41, 310 32 M278 0 C298.99 0.34, 308.94 12.94, 310 32 M310 32 C311.72 57.93, 308.21 84.81, 310 110 M310 32 C309.93 54.27, 310.09 76.31, 310 110 M310 110 C308.78 129.41, 298.86 140.52, 278 142 M310 110 C311.88 131.14, 300.84 144.03, 278 142 M278 142 C188.35 143.32, 101.83 142.97, 32 142 M278 142 C189.35 142.17, 99.68 142.76, 32 142 M32 142 C9.1 142.46, 1.24 130.87, 0 110 M32 142 C8.46 141, -1.55 130.48, 0 110 M0 110 C-0.11 89.1, 1.23 65.22, 0 32 M0 110 C0.31 93, -0.17 75.74, 0 32 M0 32 C-0.33 9.93, 10.74 1.2, 32 0 M0 32 C-1.13 9.21, 12.02 -1.57, 32 0" stroke="#1e1e1e" stroke-width="2" fill="none"></path></g><g stroke-linecap="round" transform="translate(10 169) rotate(0 155 71)"><path d="M32 0 C99.56 1.94, 167.89 2.32, 278 0 M32 0 C104.96 -0.01, 177.61 1.51, 278 0 M278 0 C300.64 0.33, 310.02 9.49, 310 32 M278 0 C300.66 0.51, 309.18 11.33, 310 32 M310 32 C308.92 52.51, 309.34 73.24, 310 110 M310 32 C309.37 55.71, 309.58 81.15, 310 110 M310 110 C310.35 131.08, 298.64 143.13, 278 142 M310 110 C309.41 132.66, 300.42 141.4, 278 142 M278 142 C219.89 141.34, 160.93 141.98, 32 142 M278 142 C184.78 139.35, 89.93 139.55, 32 142 M32 142 C12.54 141.5, -0.01 129.95, 0 110 M32 142 C12.91 141.24, -1.38 131.41, 0 110 M0 110 C-1.7 84.5, 0 55.49, 0 32 M0 110 C0.16 92.13, 0.9 72.83, 0 32 M0 32 C-0.05 10.42, 11.42 -1.38, 32 0 M0 32 C0.39 11.77, 8.67 -1.8, 32 0" stroke="#1e1e1e" stroke-width="2" fill="none"></path></g><g transform="translate(10 15) rotate(0 82.6300048828125 25)"><text x="0" y="0" font-family="Virgil, Segoe UI Emoji" font-size="20px" fill="#1e1e1e" text-anchor="start" style="white-space: pre;" direction="ltr" dominant-baseline="text-before-edge">Server</text><text x="0" y="25" font-family="Virgil, Segoe UI Emoji" font-size="20px" fill="#1e1e1e" text-anchor="start" style="white-space: pre;" direction="ltr" dominant-baseline="text-before-edge">Network Adapter</text></g><g transform="translate(10 173.5) rotate(0 82.6300048828125 25)"><text x="0" y="0" font-family="Virgil, Segoe UI Emoji" font-size="20px" fill="#1e1e1e" text-anchor="start" style="white-space: pre;" direction="ltr" dominant-baseline="text-before-edge">Switch</text><text x="0" y="25" font-family="Virgil, Segoe UI Emoji" font-size="20px" fill="#1e1e1e" text-anchor="start" style="white-space: pre;" direction="ltr" dominant-baseline="text-before-edge">Network Adapter</text></g><g stroke-linecap="round" transform="translate(10 330) rotate(0 155 71)"><path d="M32 0 C109.87 -0.04, 186.58 2.12, 278 0 M32 0 C109.22 -2.3, 186.97 -2.58, 278 0 M278 0 C298.37 -0.44, 311.19 12.26, 310 32 M278 0 C299.27 -1.9, 311.75 12.42, 310 32 M310 32 C308.83 56.66, 310.42 76.47, 310 110 M310 32 C310.02 51.1, 308.83 70.93, 310 110 M310 110 C308.98 131.46, 300.96 143.31, 278 142 M310 110 C308.49 131.03, 298.92 139.76, 278 142 M278 142 C188.29 141.21, 98.77 140.3, 32 142 M278 142 C202.43 141.34, 125.54 141.16, 32 142 M32 142 C12.15 140.41, 1.59 132.24, 0 110 M32 142 C8.75 141.38, -1.19 132.75, 0 110 M0 110 C-0.21 82.31, 1.19 51.09, 0 32 M0 110 C-0.21 80.51, 0.28 52.25, 0 32 M0 32 C0.78 10.23, 12.11 -0.37, 32 0 M0 32 C1.02 9.98, 9.09 0.04, 32 0" stroke="#1e1e1e" stroke-width="2" fill="none"></path></g><g transform="translate(10 338.5) rotate(0 82.6300048828125 25)"><text x="0" y="0" font-family="Virgil, Segoe UI Emoji" font-size="20px" fill="#1e1e1e" text-anchor="start" style="white-space: pre;" direction="ltr" dominant-baseline="text-before-edge">Client</text><text x="0" y="25" font-family="Virgil, Segoe UI Emoji" font-size="20px" fill="#1e1e1e" text-anchor="start" style="white-space: pre;" direction="ltr" dominant-baseline="text-before-edge">Network Adapter</text></g><g transform="translate(10 262) rotate(0 73.7699966430664 25)"><text x="0" y="0" font-family="Virgil, Segoe UI Emoji" font-size="20px" fill="#1e1e1e" text-anchor="start" style="white-space: pre;" direction="ltr" dominant-baseline="text-before-edge">Port bandwidth</text><text x="0" y="25" font-family="Virgil, Segoe UI Emoji" font-size="20px" fill="#1e1e1e" text-anchor="start" style="white-space: pre;" direction="ltr" dominant-baseline="text-before-edge">Port Address</text></g><g transform="translate(10 76) rotate(0 135.8800048828125 37.5)"><text x="0" y="0" font-family="Virgil, Segoe UI Emoji" font-size="20px" fill="#1e1e1e" text-anchor="start" style="white-space: pre;" direction="ltr" dominant-baseline="text-before-edge">iPXE Server Kits</text><text x="0" y="25" font-family="Virgil, Segoe UI Emoji" font-size="20px" fill="#1e1e1e" text-anchor="start" style="white-space: pre;" direction="ltr" dominant-baseline="text-before-edge">iSCSI Server Kits</text><text x="0" y="50" font-family="Virgil, Segoe UI Emoji" font-size="20px" fill="#1e1e1e" text-anchor="start" style="white-space: pre;" direction="ltr" dominant-baseline="text-before-edge">Audit &amp; Report Server Kits</text></g><g transform="translate(10 396.5) rotate(0 132.0800018310547 37.5)"><text x="0" y="0" font-family="Virgil, Segoe UI Emoji" font-size="20px" fill="#1e1e1e" text-anchor="start" style="white-space: pre;" direction="ltr" dominant-baseline="text-before-edge">iPXE Client Kits</text><text x="0" y="25" font-family="Virgil, Segoe UI Emoji" font-size="20px" fill="#1e1e1e" text-anchor="start" style="white-space: pre;" direction="ltr" dominant-baseline="text-before-edge">iSCSI Client Kits</text><text x="0" y="50" font-family="Virgil, Segoe UI Emoji" font-size="20px" fill="#1e1e1e" text-anchor="start" style="white-space: pre;" direction="ltr" dominant-baseline="text-before-edge">Audit &amp; Report Client Kits</text></g></svg>